<svg viewBox="0 0 1024 1024" xmlns="http://www.w3.org/2000/svg" width="130" height="130"><path d="M852 0l-680 0c-94.592 0-172 77.408-172 172l0 680c0 94.592 77.408 172 172 172l680 0c94.592 0 172-77.408 172-172l0-680c0-94.592-77.408-172-172-172zM384 832l-128 0 0-448 128 0 0 448zM320 320c-35.36 0-64-28.64-64-64s28.64-64 64-64 64 28.64 64 64-28.64 64-64 64zM832 832l-128 0 0-256c0-35.36-28.64-64-64-64s-64 28.64-64 64l0 256-128 0 0-448 128 0 0 79.456c26.4-36.256 66.752-79.456 112-79.456 79.52 0 144 71.648 144 160l0 288z" fill="#ffffff"></path></svg>