<svg viewBox="0 0 1024 1024" xmlns="http://www.w3.org/2000/svg" width="130" height="130"><path d="M804.576 681.706667q0-6.293333-1.152-9.152-1.706667-4.565333-21.994667-16.853333t-50.581333-28.288l-30.293333-16.576q-2.858667-1.706667-10.858667-7.424t-14.293333-8.576-12.010667-2.858667q-10.282667 0-26.858667 18.581333t-32.576 37.418667-25.152 18.858667q-4.010667 0-9.429333-2.005333t-8.853333-3.712-9.706667-5.418667-8-4.864q-56.576-31.424-97.429333-72.277333t-72.277333-97.429333q-1.152-1.706667-4.864-8t-5.418667-9.706667-3.712-8.853333-2.005333-9.429333q0-7.424 11.712-19.136t25.706667-21.994667 25.706667-22.570667 11.712-20.864q0-5.717333-2.858667-12.010667t-8.576-14.293333-7.424-10.858667q-1.706667-3.434667-8.576-16.277333t-14.293333-26.005333-15.146667-27.136-14.293333-23.146667-9.429333-10.282667-9.152-1.152q-27.434667 0-57.706667 12.565333-26.282667 12.010667-45.717333 53.994667t-19.434667 74.581333q0 9.152 1.429333 19.434667t2.858667 17.429333 5.141333 18.858667 5.717333 16.853333 7.146667 18.858667 6.293333 17.152q34.282667 93.717333 123.712 183.146667t183.146667 123.712q3.434667 1.152 17.152 6.293333t18.858667 7.146667 16.853333 5.717333 18.858667 5.141333 17.429333 2.858667 19.434667 1.429333q32.576 0 74.581333-19.434667t53.994667-45.717333q12.565333-30.293333 12.565333-57.706667zM950.858667 237.717333l0 548.565333q0 68.010667-48.277333 116.288t-116.288 48.277333l-548.565333 0q-68.010667 0-116.288-48.277333t-48.277333-116.288l0-548.565333q0-68.010667 48.277333-116.288t116.288-48.277333l548.565333 0q68.010667 0 116.288 48.277333t48.277333 116.288z" fill="#ffffff"></path></svg>