<svg viewBox="0 0 1024 1024" xmlns="http://www.w3.org/2000/svg" width="130" height="130"><path d="M514.944 805.290667c-171.648 0-248.32-84.437333-248.32-147.797334 0-32.64 23.936-55.296 56.874667-55.296 73.514667 0 54.314667 105.685333 191.445333 105.685334 70.016 0 108.8-38.186667 108.8-77.269334 0-23.509333-11.477333-49.493333-57.770667-60.970666l-152.576-38.186667c-122.88-30.890667-145.194667-97.536-145.194666-160.042667 0-130.005333 122.069333-178.816 236.757333-178.816 105.429333 0 230.101333 58.581333 230.101333 136.490667 0 33.450667-29.354667 52.906667-61.994666 52.906667-62.677333 0-51.114667-86.912-177.664-86.912-62.677333 0-97.792 28.330667-97.792 68.992s49.194667 53.674667 92.032 63.445333l112.512 25.045333c123.349333 27.690667 154.624 100.096 154.624 168.277334 0 105.642667-81.152 184.490667-244.138667 184.490666m472.917333-208.298666l-1.237333 5.76-1.877333-10.24c0.64 1.92 1.877333 3.157333 2.517333 5.12 5.12-28.8 7.722667-58.154667 7.722667-87.552a482.986667 482.986667 0 0 0-141.866667-342.016 489.856 489.856 0 0 0-153.386667-103.509334c-56.234667-26.922667-119.509333-39.68-184.661333-39.68-30.72 0-61.610667 2.986667-91.434667 8.704l5.077334 2.56-10.197334-1.408 5.077334-1.066666A284.458667 284.458667 0 0 0 287.189333 0c-76.330667 0-148.053333 29.781333-202.069333 83.925333A285.013333 285.013333 0 0 0 1.365333 286.549333c0 48.768 12.458667 96.64 36.010667 139.008l0.853333-5.290666 1.749334 10.197333-2.56-4.906667a486.869333 486.869333 0 0 0 30.378666 271.829334 466.304 466.304 0 0 0 103.552 153.984 483.242667 483.242667 0 0 0 153.386667 104.192c59.477333 25.6 122.752 38.314667 187.904 38.314666 28.117333 0 56.917333-2.56 84.352-7.637333l-5.077333-2.645333 10.24 1.962666-5.76 1.28a283.392 283.392 0 0 0 140.544 37.162667 283.306667 283.306667 0 0 0 201.941333-83.754667 285.141333 285.141333 0 0 0 83.712-202.624 288.938667 288.938667 0 0 0-36.394667-139.349333" fill="#ffffff"></path></svg>