<svg viewBox="0 0 1024 1024" xmlns="http://www.w3.org/2000/svg" width="130" height="130"><path d="M930.133 283.733c6.4 27.734 12.8 72.534 14.934 130.134L947.2 492.8V576c-2.133 59.733-8.533 104.533-14.933 132.267C928 725.333 917.333 742.4 904.533 755.2c-12.8 12.8-29.866 23.467-49.066 27.733-27.734 6.4-91.734 12.8-194.134 17.067L512 802.133 366.933 800c-102.4-4.267-166.4-8.533-194.133-17.067-19.2-4.266-36.267-14.933-49.067-27.733-17.066-12.8-25.6-29.867-32-46.933C85.333 678.4 78.933 635.733 76.8 576l-2.133-78.933c0-23.467 0-49.067 2.133-78.934 2.133-57.6 8.533-102.4 14.933-130.133 6.4-23.467 14.934-40.533 29.867-53.333s29.867-23.467 49.067-29.867C198.4 198.4 262.4 192 364.8 189.867l147.2-2.134 145.067 2.134C759.467 192 825.6 198.4 853.333 204.8c19.2 4.267 36.267 14.933 49.067 27.733 12.8 14.934 23.467 32 27.733 51.2zM422.4 627.2l228.267-130.133L422.4 366.933V627.2z" fill="#ffffff"></path></svg>