<svg width="83.04" height="24" viewBox="0 0 692 200" xmlns="http://www.w3.org/2000/svg">
  <linearGradient id="badge" x2="0" y2="100%">
    <stop offset="0" stop-opacity=".1" stop-color="#EEE"/>
    <stop offset="1" stop-opacity=".1"/>
  </linearGradient>
  <mask id="mask"><rect width="692" height="200" rx="30" fill="#FFF"/></mask>
  <g mask="url(#mask)">
    <rect width="212" height="200" fill="#555"/>
    <rect width="480" height="200" fill="#2a2a2a" x="212"/>
    <rect width="692" height="200" fill="url(#badge)"/>
  </g>
  <g fill="#fff" text-anchor="start" font-family="DejaVu Sans,Verdana,Geneva,sans-serif" font-size="110">
    <text x="172" y="148" textLength="0" fill="#000" opacity="0.25"></text>
    <text x="162" y="138" textLength="0"></text>
    <text x="267" y="148" textLength="380" fill="#000" opacity="0.25">GitHub</text>
    <text x="257" y="138" textLength="380">GitHub</text>
  </g>
  <svg xmlns="http://www.w3.org/2000/svg" width="130" height="130" viewBox="12 12 40 40" x="40" y="35">
	<path fill="#FFF" d="M32,13.4c-10.5,0-19,8.5-19,19c0,8.4,5.5,15.5,13,18c1,0.2,1.3-0.4,1.3-0.9c0-0.5,0-1.7,0-3.2 c-5.3,1.1-6.4-2.6-6.4-2.6C20,41.6,18.8,41,18.8,41c-1.7-1.2,0.1-1.1,0.1-1.1c1.9,0.1,2.9,2,2.9,2c1.7,2.9,4.5,2.1,5.5,1.6 c0.2-1.2,0.7-2.1,1.2-2.6c-4.2-0.5-8.7-2.1-8.7-9.4c0-2.1,0.7-3.7,2-5.1c-0.2-0.5-0.8-2.4,0.2-5c0,0,1.6-0.5,5.2,2 c1.5-0.4,3.1-0.7,4.8-0.7c1.6,0,3.3,0.2,4.7,0.7c3.6-2.4,5.2-2,5.2-2c1,2.6,0.4,4.6,0.2,5c1.2,1.3,2,3,2,5.1c0,7.3-4.5,8.9-8.7,9.4 c0.7,0.6,1.3,1.7,1.3,3.5c0,2.6,0,4.6,0,5.2c0,0.5,0.4,1.1,1.3,0.9c7.5-2.6,13-9.7,13-18.1C51,21.9,42.5,13.4,32,13.4z"/>
</svg>
</svg>