<svg viewBox="0 0 1024 1024" xmlns="http://www.w3.org/2000/svg" width="130" height="130"><path d="M977.4 336.5c-24.8-58.9-60.6-111.9-106-157.3S772.9 98.1 714 73.1c-61-25.8-125.8-38.9-192.6-38.9-55.8 0-110.5 9.1-162.6 27.3C219.1-4.8 53.2-0.1 45.9 0.2 18.6 1 0.5 28.7 10.6 54l87.1 219c-46.7 77.1-71.3 165.2-71.3 256.1 0 66.8 13 131.6 38.9 192.6 24.8 58.9 60.6 111.9 106 157.3s98.4 81.1 157.3 106c61 25.8 125.8 38.9 192.6 38.9s131.6-13 192.8-38.9c58.9-24.8 111.9-60.6 157.3-106s81.1-98.4 106-157.3c25.8-61 38.9-125.8 38.9-192.6S1003.2 397.5 977.4 336.5zM544.6 431.4c0 22.6-18.3 41-41 41l0 0c-22.6 0-41-18.3-41-41L462.6 357c0-22.6 18.3-41 41-41l0 0c22.6 0 41 18.3 41 41L544.6 431.4zM782.6 431.4c0 22.6-18.3 41-41 41l0 0c-22.6 0-41-18.3-41-41L700.6 357c0-22.6 18.3-41 41-41l0 0c22.6 0 41 18.3 41 41L782.6 431.4z" fill="#ffffff"></path></svg>