<svg viewBox="0 0 1316 1024" xmlns="http://www.w3.org/2000/svg" width="167.0703125" height="130"><path d="M821.142857 521.714286q0 118.857143-49.714286 211.714285t-141.714285 145.142858-210.857143 52.285714q-85.142857 0-162.857143-33.142857t-133.714286-89.142857-89.142857-133.714286-33.142857-162.857143 33.142857-162.857143 89.142857-133.714286 133.714286-89.142857 162.857143-33.142857q163.428571 0 280.571428 109.714286L585.714286 312Q518.857143 247.428571 418.857143 247.428571q-70.285714 0-130 35.428572T194.285714 379.142857 159.428571 512t34.857143 132.857143T288.857143 741.142857t130 35.428572q47.428571 0 87.142857-13.142858t65.428571-32.857142 44.857143-44.857143 28-47.428572 12.285715-42.285714H418.857143V452h395.428571q6.857143 36 6.857143 69.714286z m495.428572-69.714286v120h-119.428572v119.428571h-120v-119.428571h-119.428571V452h119.428571V332.571429h120v119.428571h119.428572z" fill="#ffffff"></path></svg>