<svg viewBox="0 0 1024 1024" xmlns="http://www.w3.org/2000/svg" width="130" height="130"><path d="M261.513846 877.489231h349.735385c15.753846 0 28.356923-12.603077 28.356923-28.356923v-39.384616c0-15.753846-12.603077-28.356923-28.356923-28.356923H261.513846c-15.753846 0-28.356923 12.603077-28.356923 28.356923v39.384616c0 15.753846 12.603077 28.356923 28.356923 28.356923z m485.218462-288.295385H724.676923c-15.753846 0-28.356923 12.603077-28.356923 28.356923v299.323077c0 9.452308-7.876923 17.329231-17.329231 17.329231h-472.615384c-9.452308 0-17.329231-7.876923-17.329231-17.329231v-299.323077c0-15.753846-12.603077-28.356923-28.356923-28.356923H138.633846c-15.753846 0-28.356923 12.603077-28.356923 28.356923v338.707693c0 53.563077 0 53.563077 6.301539 53.563076H740.430769c33.083077 0 33.083077 0 33.083077-6.301538V617.550769c1.575385-15.753846-11.027692-28.356923-26.781538-28.356923zM264.664615 734.129231l349.735385 31.507692h3.150769c14.178462 0 26.781538-11.027692 28.356923-25.206154l3.15077-39.384615c1.575385-15.753846-9.452308-28.356923-25.206154-29.932308l-348.16-31.507692c-15.753846-1.575385-29.932308 9.452308-29.932308 25.206154l-3.150769 39.384615c0 7.876923 1.575385 14.178462 6.301538 20.48 1.575385 6.301538 7.876923 9.452308 15.753846 9.452308z m638.03077-362.338462L842.830769 28.356923C839.68 12.603077 825.501538 3.150769 809.747692 6.301538L771.938462 12.603077c-15.753846 3.150769-25.206154 17.329231-23.63077 33.083077l59.864616 343.433846c1.575385 14.178462 14.178462 23.630769 28.356923 23.630769h4.726154l39.384615-6.301538c14.178462-4.726154 25.206154-18.904615 22.055385-34.658462z m-541.932308-1.575384L661.661538 548.233846c4.726154 3.150769 9.452308 3.150769 14.178462 3.150769 9.452308 0 18.904615-4.726154 23.630769-14.178461l20.48-33.083077c3.150769-6.301538 4.726154-14.178462 3.150769-22.055385-1.575385-7.876923-6.301538-14.178462-12.603076-17.32923L409.6 286.72c-12.603077-7.876923-31.507692-3.150769-39.384615 9.452308L349.735385 330.830769c-3.150769 6.301538-4.726154 14.178462-3.15077 22.055385 3.150769 6.301538 7.876923 12.603077 14.178462 17.329231zM603.372308 107.126154c-7.876923-12.603077-26.781538-15.753846-39.384616-7.876923l-33.083077 22.055384c-12.603077 9.452308-15.753846 25.206154-7.876923 39.384616l195.347693 285.144615c4.726154 7.876923 14.178462 12.603077 23.630769 12.603077 6.301538 0 11.027692-1.575385 15.753846-4.726154l31.507692-22.055384c12.603077-9.452308 15.753846-25.206154 7.876923-39.384616L603.372308 107.126154z m-315.076923 461.587692L630.153846 661.661538l7.876923 1.575385c12.603077 0 23.630769-9.452308 26.781539-22.055385l11.027692-39.384615c4.726154-15.753846-4.726154-31.507692-20.48-34.658461l-341.858462-92.947693c-14.178462-4.726154-31.507692 4.726154-34.658461 20.48l-11.027692 39.384616c-3.150769 14.178462 6.301538 29.932308 20.48 34.658461z" fill="#ffffff"></path></svg>