<svg viewBox="0 0 1024 1024" xmlns="http://www.w3.org/2000/svg" width="130" height="130">
	<path d="M869.714286 805.6c-3.771429-1.028571-8.342857-0.457143-13.6 1.485714-70.4 32.228571-138.857143 55.2-205.371429 68.8C507.085714 905.142857 367.085714 889.828571 230.857143 830.057143c-37.828571-16.685714-90.4-44.8-157.714286-84.571429a10.697143 10.697143 0 0 0-6.057143-2.285714c-2.285714-0.114286-4.228571 0.114286-6.057143 1.028571-1.828571 0.914286-3.2 2.057143-4.228571 3.542858-1.028571 1.485714-1.257143 3.542857-0.457143 6.171428 0.685714 2.514286 2.4 5.371429 5.257143 8.457143 11.885714 13.942857 26.628571 28.8 44.114286 44.571429s40.685714 33.6 69.6 53.485714c28.914286 19.885714 59.2 37.6 90.628571 53.028571 31.542857 15.428571 68.114286 28.457143 109.828572 38.971429s83.428571 15.771429 125.028571 15.771428c41.371429 0 81.6-4.228571 120.571429-12.457142 39.085714-8.342857 72-18.171429 98.857142-29.6 26.742857-11.314286 51.428571-24 74.057143-37.714286 22.628571-13.714286 39.314286-25.371429 50.171429-34.628572 10.857143-9.371429 18.628571-16.685714 23.085714-22.171428 5.257143-6.514286 7.885714-12.114286 7.885714-17.028572 0.114286-5.142857-1.942857-8.114286-5.714285-9.028571zM529.6 324.685714c-17.371429 1.485714-38.285714 4.685714-62.857143 9.485715-24.571429 4.685714-47.314286 10.628571-68.342857 17.6s-42.514286 16.685714-64.342857 29.028571c-21.942857 12.342857-40.571429 26.514286-56 42.285714s-28 35.542857-37.828572 59.428572c-9.828571 23.771429-14.742857 49.942857-14.742857 78.514285 0 30.971429 5.371429 58.514286 16.342857 82.857143 10.857143 24.342857 25.371429 43.428571 43.657143 57.6 18.171429 14.171429 38.857143 25.257143 61.714286 33.371429 22.857143 8.114286 47.085714 11.771429 72.228571 10.742857 25.142857-1.028571 49.714286-4.914286 73.6-11.771429 23.771429-6.742857 46.171429-17.6 66.971429-32.342857 20.8-14.742857 37.828571-32.228571 51.2-52.228571 4.914286 7.542857 9.257143 13.142857 13.142857 16.8l9.942857 10.171428c6.628571 6.742857 16.8 16.685714 30.514286 29.828572 13.6 13.142857 27.542857 25.942857 41.485714 38.514286l119.314286-114.171429-6.857143-5.6c-4.914286-3.771429-10.742857-9.142857-17.371428-16.342857-6.628571-7.085714-13.257143-14.971429-19.657143-23.428572-6.514286-8.457143-12.114286-18.4-16.8-29.6-4.685714-11.2-7.085714-22.057143-7.085715-32.571428V222.514286c0-11.542857-2.171429-24-6.514285-37.485715-4.457143-13.371429-12.228571-28-23.657143-43.771428-11.428571-15.771429-25.6-29.942857-42.514286-42.285714-17.028571-12.342857-39.657143-22.857143-68.114286-31.314286-28.342857-8.457143-60.114286-12.685714-95.085714-12.685714-35.771429 0-69.028571 4.228571-100.114286 12.457142-30.971429 8.342857-57.485714 19.428571-79.657142 33.371429-22.057143 13.942857-41.028571 30.057143-56.8 48.457143-15.771429 18.4-27.542857 37.6-35.2 57.6-7.657143 20-11.542857 40.228571-11.542858 60.685714L393.142857 281.142857c6.285714-18.742857 14.742857-34.971429 25.142857-48.914286 10.514286-13.942857 20.457143-24 29.485715-30.285714 9.142857-6.285714 18.971429-11.314286 29.371428-15.085714 10.514286-3.771429 17.6-5.714286 21.257143-6.171429 3.657143-0.342857 6.514286-0.457143 8.685714-0.457143 30.514286 0 51.657143 9.028571 63.542857 26.971429 7.428571 10.857143 11.085714 27.314286 11.085715 49.485714v64.685715c-17.371429 0.685714-34.742857 1.828571-52.114286 3.314285zM581.828571 498.285714c0 18.971429-2.514286 36.228571-7.428571 51.428572-10.514286 33.257143-30.514286 54.171429-59.885714 62.628571-25.6 7.542857-49.942857 3.771429-73.028572-11.2-24.571429-16-36.8-38.628571-36.8-67.771428 0-22.742857 5.714286-42.171429 17.142857-58.4 11.428571-16.114286 26.628571-28.228571 45.714286-36.228572s37.714286-13.714286 56-17.028571c18.171429-3.428571 37.714286-5.485714 58.285714-6.171429V498.285714z m383.085715 250.171429c-4.914286-6.171429-18.171429-10.171429-39.885715-12.228572-21.714286-2.057143-40.571429-1.942857-56.8 0.457143-17.485714 2.057143-35.542857 7.085714-54.057142 15.314286-18.628571 8.114286-26.742857 14.971429-24.685715 20.342857l0.8 1.485714 1.028572 0.8 1.6 0.228572h5.257143c0.914286 0 2.057143-0.114286 3.657142-0.228572 1.6-0.114286 3.085714-0.342857 4.457143-0.457142 1.371429-0.114286 3.314286-0.342857 5.828572-0.457143 2.4-0.114286 4.685714-0.457143 6.857143-0.8 0.342857 0 4.228571-0.342857 11.771428-1.028572 7.542857-0.685714 13.028571-1.142857 16.342857-1.485714 3.314286-0.342857 8.914286-0.685714 16.571429-1.028571 7.657143-0.342857 13.828571-0.342857 18.4 0 4.571429 0.342857 9.714286 0.8 15.542857 1.257142 5.828571 0.457143 10.514286 1.485714 14.171429 3.085715 3.657143 1.485714 6.4 3.428571 8.114285 5.828571 5.942857 7.542857 4.8 24.228571-3.428571 50.171429s-16 46.628571-23.314286 61.942857c-3.2 6.514286-3.2 10.514286 0 12.228571s7.657143 0.114286 13.6-4.571428c17.828571-13.942857 32.685714-34.971429 44.685714-63.2 6.971429-16.685714 12-34.057143 14.971429-52.228572 2.742857-18.171429 2.285714-29.942857-1.485714-35.428571z" fill="#ffffff">
	</path>
</svg>