<svg viewBox="0 0 1064 1024" xmlns="http://www.w3.org/2000/svg" width="135.078125" height="130"><path d="M-48.606208 883.816448" fill="#ffffff"></path><path d="M1041.337344 883.816448" fill="#ffffff"></path><path d="M124.76928 839.105536" fill="#ffffff"></path><path d="M806.987776 614.730752c0 30.491648 24.576 55.980032 54.61504 55.980032 30.492672 0 54.61504-25.488384 54.61504-55.980032L916.217856 398.99648c0-30.943232-24.122368-55.51616-54.61504-55.51616-30.03904 0-54.61504 24.572928-54.61504 55.51616L806.987776 614.730752z" fill="#ffffff"></path><path d="M611.740672 216.046592c0-14.563328 12.289024-26.401792 26.852352-26.401792 15.020032 0 27.312128 11.838464 27.312128 26.401792 0 15.019008-12.292096 26.856448-27.312128 26.856448C624.029696 242.90304 611.740672 231.0656 611.740672 216.046592z" fill="#ffffff"></path><path d="M404.214784 216.046592c0-14.563328 11.828224-26.401792 26.391552-26.401792 15.019008 0 26.852352 11.838464 26.852352 26.401792 0 15.019008-11.834368 26.856448-26.852352 26.856448C416.043008 242.90304 404.214784 231.0656 404.214784 216.046592z" fill="#ffffff"></path><path d="M291.79904 740.342784c0 23.665664 18.660352 42.77248 42.780672 42.77248l48.243712 0 0 120.152064c0 30.048256 23.665664 55.533568 54.60992 55.533568 29.582336 0 54.614016-25.486336 54.614016-55.533568L492.04736 783.115264l84.652032 0 0 120.152064c0 30.048256 23.212032 55.533568 54.156288 55.533568 30.497792 0 54.619136-25.486336 54.619136-55.533568L685.474816 783.115264l48.237568 0c24.121344 0 42.781696-19.105792 42.781696-42.77248L776.49408 344.84224 291.79904 344.84224 291.79904 740.342784z" fill="#ffffff"></path><path d="M775.584768 310.257664c-7.281664-74.635264-56.434688-136.992768-127.433728-169.761792l44.607488-65.077248c2.929664-4.28544 2.271232-9.566208-1.370112-11.382784-3.641344-2.271232-7.732224-0.910336-10.923008 2.731008l-46.877696 67.362816c-31.403008-11.378688-64.621568-18.660352-100.57728-18.660352s-70.089728 7.281664-101.037056 18.660352L386.009088 66.766848c-3.185664-3.641344-7.281664-5.912576-10.923008-2.731008-3.64032 2.276352-4.777984 7.105536-1.820672 11.382784l45.051904 65.077248c-70.99392 33.68448-121.05728 94.666752-127.429632 169.761792L775.584768 310.257664z" fill="#ffffff"></path><path d="M149.80096 614.730752c0 30.491648 23.665664 55.980032 54.61504 55.980032 29.582336 0 54.614016-25.488384 54.614016-55.980032L259.030016 398.99648c0-30.943232-25.03168-55.51616-54.614016-55.51616-30.949376 0-54.61504 24.572928-54.61504 55.51616L149.80096 614.730752z" fill="#ffffff"></path><path d="M941.249536 839.105536" fill="#ffffff"></path></svg>